<?xml version="1.0" encoding="UTF-8" standalone="no"?>
<svg
   xmlns:dc="http://purl.org/dc/elements/1.1/"
   xmlns:cc="http://creativecommons.org/ns#"
   xmlns:rdf="http://www.w3.org/1999/02/22-rdf-syntax-ns#"
   xmlns:svg="http://www.w3.org/2000/svg"
   xmlns="http://www.w3.org/2000/svg"
   xmlns:sodipodi="http://sodipodi.sourceforge.net/DTD/sodipodi-0.dtd"
   xmlns:inkscape="http://www.inkscape.org/namespaces/inkscape"
   inkscape:export-ydpi="300"
   inkscape:export-xdpi="300"
   inkscape:export-filename="/Users/lucacorsato/Documents/osd/website/poenta-valei/assets/img/poenta-valei-sfondo.png"
   sodipodi:docname="poenta-valei-sfondo.svg"
   inkscape:version="1.0 (4035a4f, 2020-05-01)"
   id="svg8"
   version="1.1"
   viewBox="0 0 105.83333 105.83333"
   height="400"
   width="400">
  <defs
     id="defs2" />
  <sodipodi:namedview
     units="px"
     fit-margin-bottom="0"
     fit-margin-right="0"
     fit-margin-left="0"
     fit-margin-top="0"
     inkscape:window-maximized="0"
     inkscape:window-y="544"
     inkscape:window-x="920"
     inkscape:window-height="943"
     inkscape:window-width="1398"
     inkscape:snap-global="false"
     inkscape:snap-center="true"
     inkscape:snap-object-midpoints="true"
     inkscape:object-paths="true"
     inkscape:snap-intersection-paths="true"
     inkscape:snap-smooth-nodes="true"
     inkscape:snap-bbox-midpoints="true"
     inkscape:snap-bbox-edge-midpoints="true"
     inkscape:bbox-nodes="true"
     inkscape:bbox-paths="true"
     inkscape:snap-bbox="true"
     showgrid="false"
     inkscape:document-rotation="0"
     inkscape:current-layer="layer1"
     inkscape:document-units="mm"
     inkscape:cy="200.00001"
     inkscape:cx="161.90477"
     inkscape:zoom="0.91874998"
     inkscape:pageshadow="2"
     inkscape:pageopacity="0.0"
     borderopacity="1.0"
     bordercolor="#666666"
     pagecolor="#ffffff"
     id="base" />
  <metadata
     id="metadata5">
    <rdf:RDF>
      <cc:Work
         rdf:about="">
        <dc:format>image/svg+xml</dc:format>
        <dc:type
           rdf:resource="http://purl.org/dc/dcmitype/StillImage" />
        <dc:title></dc:title>
      </cc:Work>
    </rdf:RDF>
  </metadata>
  <g
     transform="translate(-48.683332,-62.895384)"
     id="layer1"
     inkscape:groupmode="layer"
     inkscape:label="Livello 1">
    <rect
       ry="10.583333"
       rx="10.583333"
       y="62.895378"
       x="48.683327"
       height="105.83334"
       width="105.83334"
       id="rect1226"
       style="fill:#f9f9f9;fill-opacity:1;stroke-width:2.53543;stroke-linecap:round;stroke-linejoin:round" />
    <path
       d="M 94.557237,62.895384 V 83.634859 A 42.837302,42.837302 0 0 0 58.762695,125.89142 42.837302,42.837302 0 0 0 101.6,168.72872 42.837302,42.837302 0 0 0 144.4373,125.89142 42.837302,42.837302 0 0 0 107.15644,83.41831 V 62.895384 Z m 6.299603,5.039683 a 2.5198411,2.5198411 0 0 1 2.51984,2.519841 2.5198411,2.5198411 0 0 1 -2.51984,2.519841 2.5198411,2.5198411 0 0 1 -2.519841,-2.519841 2.5198411,2.5198411 0 0 1 2.519841,-2.519841 z m -3.937252,39.057543 c 0.648182,1e-5 1.171333,0.52304 1.171333,1.17133 v 1.87019 0.46755 1.17133 h 2.337739 v -1.17133 -0.46755 -1.87019 c 0,-0.64821 0.52324,-1.17133 1.17134,-1.17133 0.64818,0 1.17133,0.52304 1.17133,1.17133 v 1.87019 0.46755 1.17133 h 2.33774 v -1.17133 -0.46755 -1.87019 c 0,-0.64821 0.52324,-1.17133 1.17134,-1.17133 0.6482,0 1.17133,0.52304 1.17133,1.17133 v 1.87019 0.46755 1.17133 h 2.99231 c 1.58284,0 2.8545,1.27165 2.8545,2.85451 v 2.99231 h 1.17134 0.46755 1.87019 c 0.64818,0 1.17133,0.52305 1.17133,1.17134 0,0.6482 -0.52324,1.17133 -1.17133,1.17133 h -1.87019 -0.46755 -1.17134 v 2.33774 h 1.17134 0.46755 1.87019 c 0.64818,0 1.17133,0.52305 1.17133,1.17133 0,0.6482 -0.52324,1.17134 -1.17133,1.17134 h -1.87019 -0.46755 -1.17134 v 2.33774 h 1.17134 0.46755 1.87019 c 0.64808,0 1.17133,0.52305 1.17133,1.17133 0,0.64818 -0.52324,1.17134 -1.17133,1.17134 h -1.87019 -0.46755 -1.17134 v 2.99231 c 0,1.58285 -1.27166,2.8545 -2.8545,2.8545 h -2.99231 v 1.17134 0.46755 1.87019 c 0,0.64818 -0.52305,1.17133 -1.17133,1.17133 -0.64819,0 -1.17134,-0.52323 -1.17134,-1.17133 v -1.87019 -0.46755 -1.17134 h -2.33774 v 1.17134 0.46755 1.87019 c 0,0.64818 -0.52314,1.17133 -1.17133,1.17133 -0.64818,0 -1.17134,-0.52323 -1.17134,-1.17133 v -1.87019 -0.46755 -1.17134 h -2.337739 v 1.17134 0.46755 1.87019 c 0,0.64809 -0.523141,1.17133 -1.171333,1.17133 -0.648209,0 -1.171333,-0.52323 -1.171333,-1.17133 v -1.87019 -0.46755 -1.17134 h -2.992311 c -1.582839,0 -2.854507,-1.27165 -2.854507,-2.8545 v -2.99231 h -1.171333 -0.467549 -1.870193 c -0.648181,0 -1.171333,-0.52334 -1.171333,-1.17134 0,-0.64821 0.523141,-1.17133 1.171333,-1.17133 h 1.870193 0.467549 1.171333 v -2.33774 h -1.171333 -0.467549 -1.870193 c -0.648181,0 -1.171333,-0.52324 -1.171333,-1.17134 0,-0.64818 0.523141,-1.17133 1.171333,-1.17133 h 1.870193 0.467549 1.171333 v -2.33774 h -1.171333 -0.467549 -1.870193 c -0.648181,0 -1.171333,-0.52324 -1.171333,-1.17133 0,-0.64819 0.523141,-1.17134 1.171333,-1.17134 h 1.870193 0.467549 1.171333 v -2.99231 c 0,-1.58286 1.271668,-2.85451 2.854507,-2.85451 h 2.992311 v -1.17133 -0.46755 -1.87019 c 0,-0.64821 0.523238,-1.17133 1.171333,-1.17133 z m -4.71486,6.25038 a 0.78571428,0.78571428 0 0 0 -0.733311,0.78745 0.78571428,0.78571428 0 0 0 0.78745,0.78253 0.78571428,0.78571428 0 0 0 0.782529,-0.78253 0.78571428,0.78571428 0 0 0 -0.782529,-0.78745 0.78571428,0.78571428 0 0 0 -0.05413,0 z m 3.056293,1.74716 c -1.133981,-3e-5 -2.04245,0.9085 -2.04245,2.04245 v 12.67795 c 0,1.13398 0.908441,2.04245 2.04245,2.04245 h 12.677949 c 1.13398,0 2.04245,-0.90848 2.04245,-2.04245 V 117.0326 c 0,-1.13398 -0.90844,-2.04245 -2.04245,-2.04245 z m 1.230391,1.62904 h 10.217168 c 0.91372,0 1.6438,0.72999 1.6438,1.6438 v 10.21717 c 0,0.91369 -0.73008,1.6438 -1.6438,1.6438 H 96.491412 c -0.913722,0 -1.643803,-0.72999 -1.643803,-1.6438 v -10.21717 c 0,-0.91371 0.729995,-1.6438 1.643803,-1.6438 z"
       style="fill:#784421;stroke-width:1.45106;stroke-linecap:round;stroke-linejoin:round"
       id="path833" />
  </g>
</svg>
