<?xml version="1.0" encoding="UTF-8" standalone="no"?>
<svg
   xmlns:dc="http://purl.org/dc/elements/1.1/"
   xmlns:cc="http://creativecommons.org/ns#"
   xmlns:rdf="http://www.w3.org/1999/02/22-rdf-syntax-ns#"
   xmlns:svg="http://www.w3.org/2000/svg"
   xmlns="http://www.w3.org/2000/svg"
   xmlns:sodipodi="http://sodipodi.sourceforge.net/DTD/sodipodi-0.dtd"
   xmlns:inkscape="http://www.inkscape.org/namespaces/inkscape"
   width="97.142815"
   height="120"
   viewBox="0 0 25.702368 31.75"
   version="1.1"
   id="svg8"
   inkscape:version="1.0 (4035a4f, 2020-05-01)"
   sodipodi:docname="poenta-valei.svg">
  <defs
     id="defs2" />
  <sodipodi:namedview
     id="base"
     pagecolor="#ffffff"
     bordercolor="#666666"
     borderopacity="1.0"
     inkscape:pageopacity="0.0"
     inkscape:pageshadow="2"
     inkscape:zoom="0.91874998"
     inkscape:cx="123.80954"
     inkscape:cy="202.17688"
     inkscape:document-units="mm"
     inkscape:current-layer="layer1"
     inkscape:document-rotation="0"
     showgrid="false"
     inkscape:snap-bbox="true"
     inkscape:bbox-paths="true"
     inkscape:bbox-nodes="true"
     inkscape:snap-bbox-edge-midpoints="true"
     inkscape:snap-bbox-midpoints="true"
     inkscape:snap-smooth-nodes="true"
     inkscape:snap-intersection-paths="true"
     inkscape:object-paths="true"
     inkscape:snap-object-midpoints="true"
     inkscape:snap-center="true"
     inkscape:snap-global="false"
     inkscape:window-width="1398"
     inkscape:window-height="943"
     inkscape:window-x="386"
     inkscape:window-y="159"
     inkscape:window-maximized="0"
     fit-margin-top="0"
     fit-margin-left="0"
     fit-margin-right="0"
     fit-margin-bottom="0"
     units="px" />
  <metadata
     id="metadata5">
    <rdf:RDF>
      <cc:Work
         rdf:about="">
        <dc:format>image/svg+xml</dc:format>
        <dc:type
           rdf:resource="http://purl.org/dc/dcmitype/StillImage" />
        <dc:title></dc:title>
      </cc:Work>
    </rdf:RDF>
  </metadata>
  <g
     inkscape:label="Livello 1"
     inkscape:groupmode="layer"
     id="layer1"
     transform="translate(-58.762695,-62.895384)">
    <path
       id="path833"
       style="fill:#784421;fill-opacity:1;stroke-width:0.435312;stroke-linecap:round;stroke-linejoin:round"
       d="m 69.501049,62.895384 v 6.22184 A 12.851189,12.851189 0 0 0 58.762695,81.794192 12.851189,12.851189 0 0 0 71.613893,94.645384 12.851189,12.851189 0 0 0 84.465065,81.794192 12.851189,12.851189 0 0 0 73.280819,69.052254 v -6.15687 z m 1.889878,1.511904 a 0.75595222,0.75595222 0 0 1 0.755966,0.75595 0.75595222,0.75595222 0 0 1 -0.755966,0.75595 0.75595222,0.75595222 0 0 1 -0.755948,-0.75595 0.75595222,0.75595222 0 0 1 0.755948,-0.75595 z m -1.18116,11.717268 c 0.19448,4e-6 0.351394,0.15694 0.351394,0.351396 v 0.561046 0.1402 0.35141 h 0.701328 v -0.351406 -0.14022 -0.561046 c 0,-0.1945 0.15698,-0.351396 0.351404,-0.351396 0.19448,0 0.351396,0.15694 0.351396,0.351396 v 0.561046 0.1402 0.351412 h 0.701308 v -0.351408 -0.14022 -0.561046 c 0,-0.1945 0.15698,-0.351396 0.351418,-0.351396 0.19448,0 0.351398,0.15692 0.351398,0.351396 v 0.561046 0.1402 0.35141 h 0.897688 c 0.474852,0 0.856348,0.381496 0.856348,0.856348 v 0.897702 h 0.351398 0.1402 0.56107 c 0.19448,0 0.351396,0.15696 0.351396,0.351396 0,0.19448 -0.15698,0.351398 -0.351396,0.351398 h -0.56107 -0.1402 -0.351398 v 0.701332 h 0.351398 0.1402 0.56107 c 0.19448,0 0.351396,0.15694 0.351396,0.351394 0,0.19448 -0.15698,0.351398 -0.351396,0.351398 h -0.56107 -0.1402 -0.351398 v 0.701328 h 0.351398 0.1402 0.56107 c 0.19444,0 0.351396,0.15694 0.351396,0.3514 0,0.19448 -0.15698,0.351398 -0.351396,0.351398 h -0.56107 -0.1402 -0.351398 v 0.897692 c 0,0.474852 -0.381496,0.856344 -0.856348,0.856344 h -0.897688 v 0.351406 0.1402 0.561054 c 0,0.19448 -0.15694,0.351396 -0.351398,0.351396 -0.19448,0 -0.351418,-0.15698 -0.351418,-0.351396 v -0.561054 -0.1402 -0.351406 h -0.701308 v 0.351406 0.1402 0.561054 c 0,0.19448 -0.15698,0.351396 -0.351396,0.351396 -0.19446,0 -0.351404,-0.15698 -0.351404,-0.351396 v -0.561024 -0.14022 -0.351406 h -0.701328 v 0.351406 0.1402 0.56105 c 0,0.19444 -0.15696,0.351394 -0.351394,0.351394 -0.19446,0 -0.351402,-0.15698 -0.351402,-0.351394 v -0.561006 -0.14022 -0.351406 h -0.89769 c -0.474866,0 -0.856366,-0.381488 -0.856366,-0.85634 v -0.897688 h -0.351396 -0.14024 -0.56105 c -0.19448,0 -0.351416,-0.157 -0.351416,-0.351394 0,-0.19452 0.15696,-0.351404 0.351416,-0.351404 h 0.56105 0.1402 0.351396 v -0.701336 h -0.351386 -0.14026 -0.56105 c -0.19448,0 -0.351418,-0.15698 -0.351418,-0.351398 0,-0.19448 0.15698,-0.351396 0.351418,-0.351396 h 0.56105 0.1402 0.351394 v -0.701322 h -0.351386 -0.14024 -0.561052 c -0.19448,0 -0.351414,-0.157 -0.351414,-0.3514 0,-0.19448 0.15698,-0.351398 0.351414,-0.351398 h 0.561052 0.1402 0.351396 v -0.897702 c 0,-0.47485 0.3815,-0.856346 0.856368,-0.856346 h 0.89769 v -0.351412 -0.1402 -0.561046 c 0,-0.1945 0.15698,-0.351396 0.3514,-0.351396 z m -1.41447,1.875106 a 0.23571424,0.23571424 0 0 0 -0.220038,0.236186 0.23571424,0.23571424 0 0 0 0.23618,0.234726 0.23571424,0.23571424 0 0 0 0.234718,-0.234726 0.23571424,0.23571424 0 0 0 -0.234718,-0.236186 0.23571424,0.23571424 0 0 0 -0.0166,0 z m 0.916884,0.524144 c -0.340182,-10e-6 -0.612726,0.272552 -0.612726,0.612748 v 3.803372 c 0,0.340204 0.272536,0.612746 0.612726,0.612746 h 3.803398 c 0.34018,0 0.612724,-0.272542 0.612724,-0.612746 v -3.803372 c 0,-0.340206 -0.272536,-0.612748 -0.612724,-0.612748 z m 0.369132,0.488718 h 3.06515 c 0.27411,0 0.49314,0.219036 0.49314,0.493138 v 3.065156 c 0,0.274094 -0.219064,0.49314 -0.49314,0.49314 h -3.06515 c -0.274128,0 -0.49314,-0.219038 -0.49314,-0.49314 v -3.065156 c 0,-0.274104 0.219026,-0.493138 0.49314,-0.493138 z" />
  </g>
</svg>
