<?xml version="1.0" encoding="UTF-8" standalone="no"?>
<svg
   xmlns:dc="http://purl.org/dc/elements/1.1/"
   xmlns:cc="http://creativecommons.org/ns#"
   xmlns:rdf="http://www.w3.org/1999/02/22-rdf-syntax-ns#"
   xmlns:svg="http://www.w3.org/2000/svg"
   xmlns="http://www.w3.org/2000/svg"
   xmlns:sodipodi="http://sodipodi.sourceforge.net/DTD/sodipodi-0.dtd"
   xmlns:inkscape="http://www.inkscape.org/namespaces/inkscape"
   width="48.571407"
   height="60"
   viewBox="0 0 12.851184 15.875"
   version="1.1"
   id="svg8"
   inkscape:version="1.0 (4035a4f, 2020-05-01)"
   sodipodi:docname="poenta-valei-min.svg">
  <defs
     id="defs2" />
  <sodipodi:namedview
     id="base"
     pagecolor="#ffffff"
     bordercolor="#666666"
     borderopacity="1.0"
     inkscape:pageopacity="0.0"
     inkscape:pageshadow="2"
     inkscape:zoom="0.91874998"
     inkscape:cx="123.80954"
     inkscape:cy="202.17688"
     inkscape:document-units="mm"
     inkscape:current-layer="layer1"
     inkscape:document-rotation="0"
     showgrid="false"
     inkscape:snap-bbox="true"
     inkscape:bbox-paths="true"
     inkscape:bbox-nodes="true"
     inkscape:snap-bbox-edge-midpoints="true"
     inkscape:snap-bbox-midpoints="true"
     inkscape:snap-smooth-nodes="true"
     inkscape:snap-intersection-paths="true"
     inkscape:object-paths="true"
     inkscape:snap-object-midpoints="true"
     inkscape:snap-center="true"
     inkscape:snap-global="false"
     inkscape:window-width="1398"
     inkscape:window-height="943"
     inkscape:window-x="386"
     inkscape:window-y="159"
     inkscape:window-maximized="0"
     fit-margin-top="0"
     fit-margin-left="0"
     fit-margin-right="0"
     fit-margin-bottom="0"
     units="px" />
  <metadata
     id="metadata5">
    <rdf:RDF>
      <cc:Work
         rdf:about="">
        <dc:format>image/svg+xml</dc:format>
        <dc:type
           rdf:resource="http://purl.org/dc/dcmitype/StillImage" />
        <dc:title></dc:title>
      </cc:Work>
    </rdf:RDF>
  </metadata>
  <g
     inkscape:label="Livello 1"
     inkscape:groupmode="layer"
     id="layer1"
     transform="translate(-58.762695,-62.895384)">
    <path
       id="path833"
       style="fill:#784421;fill-opacity:1;stroke-width:0.217656;stroke-linecap:round;stroke-linejoin:round"
       d="m 64.131872,62.895384 v 3.11092 a 6.4255945,6.4255945 0 0 0 -5.369177,6.338484 6.4255945,6.4255945 0 0 0 6.425599,6.425596 6.4255945,6.4255945 0 0 0 6.425586,-6.425596 6.4255945,6.4255945 0 0 0 -5.592123,-6.370969 v -3.078435 z m 0.944939,0.755952 a 0.37797611,0.37797611 0 0 1 0.377983,0.377975 0.37797611,0.37797611 0 0 1 -0.377983,0.377975 0.37797611,0.37797611 0 0 1 -0.377974,-0.377975 0.37797611,0.37797611 0 0 1 0.377974,-0.377975 z m -0.59058,5.858634 c 0.09724,2e-6 0.175697,0.07847 0.175697,0.175698 v 0.280523 0.0701 0.175705 h 0.350664 v -0.175703 -0.07011 -0.280523 c 0,-0.09725 0.07849,-0.175698 0.175702,-0.175698 0.09724,0 0.175698,0.07847 0.175698,0.175698 v 0.280523 0.0701 0.175706 h 0.350654 v -0.175704 -0.07011 -0.280523 c 0,-0.09725 0.07849,-0.175698 0.175709,-0.175698 0.09724,0 0.175699,0.07846 0.175699,0.175698 v 0.280523 0.0701 0.175705 h 0.448844 c 0.237426,0 0.428174,0.190748 0.428174,0.428174 v 0.448851 h 0.175699 0.0701 0.280535 c 0.09724,0 0.175698,0.07848 0.175698,0.175698 0,0.09724 -0.07849,0.175699 -0.175698,0.175699 h -0.280535 -0.0701 -0.175699 v 0.350666 h 0.175699 0.0701 0.280535 c 0.09724,0 0.175698,0.07847 0.175698,0.175697 0,0.09724 -0.07849,0.175699 -0.175698,0.175699 h -0.280535 -0.0701 -0.175699 v 0.350664 h 0.175699 0.0701 0.280535 c 0.09722,0 0.175698,0.07847 0.175698,0.1757 0,0.09724 -0.07849,0.175699 -0.175698,0.175699 h -0.280535 -0.0701 -0.175699 v 0.448846 c 0,0.237426 -0.190748,0.428172 -0.428174,0.428172 h -0.448844 v 0.175703 0.0701 0.280527 c 0,0.09724 -0.07847,0.175698 -0.175699,0.175698 -0.09724,0 -0.175709,-0.07849 -0.175709,-0.175698 v -0.280527 -0.0701 -0.175703 h -0.350654 v 0.175703 0.0701 0.280527 c 0,0.09724 -0.07849,0.175698 -0.175698,0.175698 -0.09723,0 -0.175702,-0.07849 -0.175702,-0.175698 v -0.280512 -0.07011 -0.175703 h -0.350664 v 0.175703 0.0701 0.280525 c 0,0.09722 -0.07848,0.175697 -0.175697,0.175697 -0.09723,0 -0.175701,-0.07849 -0.175701,-0.175697 v -0.280503 -0.07011 -0.175703 h -0.448845 c -0.237433,0 -0.428183,-0.190744 -0.428183,-0.42817 v -0.448844 h -0.175698 -0.07012 -0.280525 c -0.09724,0 -0.175708,-0.0785 -0.175708,-0.175697 0,-0.09726 0.07848,-0.175702 0.175708,-0.175702 h 0.280525 0.0701 0.175698 v -0.350668 h -0.175693 -0.07013 -0.280525 c -0.09724,0 -0.175709,-0.07849 -0.175709,-0.175699 0,-0.09724 0.07849,-0.175698 0.175709,-0.175698 h 0.280525 0.0701 0.175697 v -0.350661 h -0.175693 -0.07012 -0.280526 c -0.09724,0 -0.175707,-0.0785 -0.175707,-0.1757 0,-0.09724 0.07849,-0.175699 0.175707,-0.175699 h 0.280526 0.0701 0.175698 v -0.448851 c 0,-0.237425 0.19075,-0.428173 0.428184,-0.428173 h 0.448845 v -0.175706 -0.0701 -0.280523 c 0,-0.09725 0.07849,-0.175698 0.1757,-0.175698 z m -0.707235,0.937553 a 0.11785712,0.11785712 0 0 0 -0.110019,0.118093 0.11785712,0.11785712 0 0 0 0.11809,0.117363 0.11785712,0.11785712 0 0 0 0.117359,-0.117363 0.11785712,0.11785712 0 0 0 -0.117359,-0.118093 0.11785712,0.11785712 0 0 0 -0.0083,0 z m 0.458442,0.262072 c -0.170091,-5e-6 -0.306363,0.136276 -0.306363,0.306374 v 1.901686 c 0,0.170102 0.136268,0.306373 0.306363,0.306373 h 1.901699 c 0.17009,0 0.306362,-0.136271 0.306362,-0.306373 v -1.901686 c 0,-0.170103 -0.136268,-0.306374 -0.306362,-0.306374 z m 0.184566,0.244359 h 1.532575 c 0.137055,0 0.24657,0.109518 0.24657,0.246569 v 1.532578 c 0,0.137047 -0.109532,0.24657 -0.24657,0.24657 h -1.532575 c -0.137064,0 -0.24657,-0.109519 -0.24657,-0.24657 v -1.532578 c 0,-0.137052 0.109513,-0.246569 0.24657,-0.246569 z" />
  </g>
</svg>
