<?xml version="1.0" encoding="UTF-8" standalone="no"?>
<svg
   xmlns:dc="http://purl.org/dc/elements/1.1/"
   xmlns:cc="http://creativecommons.org/ns#"
   xmlns:rdf="http://www.w3.org/1999/02/22-rdf-syntax-ns#"
   xmlns:svg="http://www.w3.org/2000/svg"
   xmlns="http://www.w3.org/2000/svg"
   xmlns:sodipodi="http://sodipodi.sourceforge.net/DTD/sodipodi-0.dtd"
   xmlns:inkscape="http://www.inkscape.org/namespaces/inkscape"
   sodipodi:docname="poenta-valei-meta.svg"
   inkscape:version="1.0 (4035a4f, 2020-05-01)"
   id="svg8"
   version="1.1"
   viewBox="0 0 317.49997 166.6875"
   height="630"
   width="1200"
   inkscape:export-filename="/Users/lucacorsato/Documents/osd/website/poenta-valei/assets/img/poenta-valei-meta.png"
   inkscape:export-xdpi="300"
   inkscape:export-ydpi="300">
  <defs
     id="defs2" />
  <sodipodi:namedview
     units="px"
     fit-margin-bottom="0"
     fit-margin-right="0"
     fit-margin-left="0"
     fit-margin-top="0"
     inkscape:window-maximized="0"
     inkscape:window-y="87"
     inkscape:window-x="251"
     inkscape:window-height="943"
     inkscape:window-width="1398"
     inkscape:snap-global="false"
     inkscape:snap-center="true"
     inkscape:snap-object-midpoints="true"
     inkscape:object-paths="true"
     inkscape:snap-intersection-paths="true"
     inkscape:snap-smooth-nodes="true"
     inkscape:snap-bbox-midpoints="true"
     inkscape:snap-bbox-edge-midpoints="true"
     inkscape:bbox-nodes="true"
     inkscape:bbox-paths="true"
     inkscape:snap-bbox="true"
     showgrid="false"
     inkscape:document-rotation="0"
     inkscape:current-layer="layer1"
     inkscape:document-units="mm"
     inkscape:cy="336.59383"
     inkscape:cx="606.16967"
     inkscape:zoom="0.64833333"
     inkscape:pageshadow="2"
     inkscape:pageopacity="0.0"
     borderopacity="1.0"
     bordercolor="#666666"
     pagecolor="#ffffff"
     id="base"
     showguides="false" />
  <metadata
     id="metadata5">
    <rdf:RDF>
      <cc:Work
         rdf:about="">
        <dc:format>image/svg+xml</dc:format>
        <dc:type
           rdf:resource="http://purl.org/dc/dcmitype/StillImage" />
        <dc:title></dc:title>
      </cc:Work>
    </rdf:RDF>
  </metadata>
  <g
     transform="translate(-48.683332,-62.895384)"
     id="layer1"
     inkscape:groupmode="layer"
     inkscape:label="Livello 1">
    <rect
       style="fill:#ffffff;fill-opacity:1;stroke-width:0.733595;stroke-linecap:round;stroke-linejoin:round"
       id="rect1883"
       width="317.5"
       height="166.6875"
       x="48.683331"
       y="62.895386"
       rx="10"
       ry="10" />
    <path
       d="M 107.74283,69.509966 V 99.582204 A 62.114089,62.114089 0 0 0 55.840694,160.85421 62.114089,62.114089 0 0 0 117.95483,222.9683 62.114089,62.114089 0 0 0 180.06892,160.85421 62.114089,62.114089 0 0 0 126.01167,99.268203 V 69.509966 Z m 9.13442,7.30754 a 3.6537693,3.6537693 0 0 1 3.65377,3.653771 3.6537693,3.6537693 0 0 1 -3.65377,3.653768 3.6537693,3.6537693 0 0 1 -3.65378,-3.653768 3.6537693,3.6537693 0 0 1 3.65378,-3.653771 z m -5.70901,56.633434 c 0.93987,1e-5 1.69843,0.7584 1.69843,1.69843 v 2.71175 0.67797 1.69842 h 3.38972 v -1.69842 -0.67797 -2.71175 c 0,-0.93992 0.7587,-1.69843 1.69844,-1.69843 0.93987,0 1.69843,0.7584 1.69843,1.69843 v 2.71175 0.67797 1.69842 h 3.38972 v -1.69842 -0.67797 -2.71175 c 0,-0.93992 0.75871,-1.69843 1.69845,-1.69843 0.93988,0 1.69844,0.7584 1.69844,1.69843 v 2.71175 0.67797 1.69842 h 4.33884 c 2.29511,0 4.13903,1.8439 4.13903,4.13904 v 4.33885 h 1.69843 0.67795 2.71178 c 0.93985,0 1.69843,0.75843 1.69843,1.69845 0,0.93988 -0.7587,1.69844 -1.69843,1.69844 h -2.71178 -0.67795 -1.69843 v 3.38971 h 1.69843 0.67795 2.71178 c 0.93985,0 1.69843,0.75843 1.69843,1.69843 0,0.93989 -0.7587,1.69844 -1.69843,1.69844 h -2.71178 -0.67795 -1.69843 v 3.38972 h 1.69843 0.67795 2.71178 c 0.93971,0 1.69843,0.75843 1.69843,1.69843 0,0.93986 -0.7587,1.69845 -1.69843,1.69845 h -2.71178 -0.67795 -1.69843 v 4.33884 c 0,2.29514 -1.84392,4.13902 -4.13903,4.13902 h -4.33884 v 1.69845 0.67796 2.71176 c 0,0.93986 -0.75843,1.69842 -1.69844,1.69842 -0.93988,0 -1.69845,-0.75867 -1.69845,-1.69842 v -2.71176 -0.67796 -1.69845 h -3.38972 v 1.69845 0.67796 2.71176 c 0,0.93986 -0.75856,1.69842 -1.69843,1.69842 -0.93986,0 -1.69844,-0.75867 -1.69844,-1.69842 v -2.71176 -0.67796 -1.69845 h -3.38972 v 1.69845 0.67796 2.71176 c 0,0.93974 -0.75855,1.69842 -1.69843,1.69842 -0.9399,0 -1.69844,-0.75867 -1.69844,-1.69842 v -2.71176 -0.67796 -1.69845 h -4.33885 c -2.29511,0 -4.13904,-1.84388 -4.13904,-4.13902 v -4.33884 h -1.698419 -0.677944 -2.711793 c -0.939857,0 -1.698433,-0.75886 -1.698433,-1.69845 0,-0.93991 0.758557,-1.69843 1.698433,-1.69843 h 2.711793 0.677944 1.698419 v -3.38972 h -1.698419 -0.677944 -2.711793 c -0.939857,0 -1.698433,-0.75869 -1.698433,-1.69844 0,-0.93987 0.758557,-1.69843 1.698433,-1.69843 h 2.711793 0.677944 1.698419 v -3.38971 h -1.698419 -0.677944 -2.711793 c -0.939857,0 -1.698433,-0.75871 -1.698433,-1.69844 0,-0.93988 0.758557,-1.69845 1.698433,-1.69845 h 2.711793 0.677944 1.698419 v -4.33885 c 0,-2.29514 1.84393,-4.13904 4.13904,-4.13904 h 4.33885 v -1.69842 -0.67797 -2.71175 c 0,-0.93992 0.7587,-1.69843 1.69844,-1.69843 z m -6.83655,9.06304 a 1.1392856,1.1392856 0 0 0 -1.06331,1.14181 1.1392856,1.1392856 0 0 0 1.14181,1.13466 1.1392856,1.1392856 0 0 0 1.13466,-1.13466 1.1392856,1.1392856 0 0 0 -1.13466,-1.14181 1.1392856,1.1392856 0 0 0 -0.0785,0 z m 4.43162,2.53338 c -1.64427,-4e-5 -2.96154,1.31733 -2.96154,2.96156 v 18.38303 c 0,1.64426 1.31722,2.96155 2.96154,2.96155 h 18.38303 c 1.64428,0 2.96155,-1.3173 2.96155,-2.96155 v -18.38303 c 0,-1.64427 -1.31723,-2.96156 -2.96155,-2.96156 z m 1.78407,2.36211 h 14.8149 c 1.32489,0 2.38351,1.05849 2.38351,2.38352 v 14.81488 c 0,1.32486 -1.05862,2.38352 -2.38351,2.38352 h -14.8149 c -1.3249,0 -2.38351,-1.05848 -2.38351,-2.38352 v -14.81488 c 0,-1.32487 1.05848,-2.38352 2.38351,-2.38352 z"
       style="fill:#784421;fill-opacity:1;stroke-width:2.10404;stroke-linecap:round;stroke-linejoin:round"
       id="path833" />
    <g
       transform="translate(-3.1066981)"
       style="font-style:normal;font-variant:normal;font-weight:bold;font-stretch:normal;font-size:23.2293px;line-height:1.25;font-family:Arial;-inkscape-font-specification:'Arial Bold';letter-spacing:-0.0045538px;stroke-width:0.580734"
       id="text1833"
       aria-label="POENTA VALEI">
      <path
         id="path859"
         style="font-style:normal;font-variant:normal;font-weight:bold;font-stretch:normal;font-family:Arial;-inkscape-font-specification:'Arial Bold';letter-spacing:-0.569228px;stroke-width:0.580734"
         d="M 201.01505,106.81493 V 90.186929 h 5.38765 q 3.06246,0 3.99254,0.249534 1.42915,0.3743 2.39325,1.63331 0.96411,1.247667 0.96411,3.232593 0,1.531228 -0.55578,2.574732 -0.55578,1.043504 -1.4178,1.644652 -0.85069,0.58981 -1.73539,0.78263 -1.2023,0.23819 -3.48213,0.23819 h -2.18909 v 6.27236 z m 3.35736,-13.815078 v 4.718452 h 1.83747 q 1.98493,0 2.65413,-0.260876 0.66921,-0.260876 1.04351,-0.816655 0.38564,-0.555779 0.38564,-1.293037 0,-0.907395 -0.5331,-1.497201 -0.53309,-0.589807 -1.34974,-0.737258 -0.60115,-0.113425 -2.41594,-0.113425 z" />
      <path
         id="path861"
         style="font-style:normal;font-variant:normal;font-weight:bold;font-stretch:normal;font-family:Arial;-inkscape-font-specification:'Arial Bold';letter-spacing:-0.569228px;stroke-width:0.580734"
         d="m 215.28172,98.603013 q 0,-2.540704 0.75994,-4.264754 0.56713,-1.270352 1.54258,-2.279828 0.98679,-1.009477 2.15506,-1.497201 1.55391,-0.657861 3.58421,-0.657861 3.67494,0 5.87538,2.279828 2.21177,2.279829 2.21177,6.340419 0,4.026564 -2.18909,6.306394 -2.18909,2.26848 -5.85269,2.26848 -3.70898,0 -5.89807,-2.25714 -2.18909,-2.26849 -2.18909,-6.238337 z m 3.45944,-0.113424 q 0,2.824261 1.30438,4.287441 1.30438,1.45183 3.31199,1.45183 2.00761,0 3.28931,-1.44049 1.29304,-1.45183 1.29304,-4.344151 0,-2.858292 -1.25901,-4.264754 -1.24767,-1.406461 -3.32334,-1.406461 -2.07566,0 -3.34601,1.429146 -1.27036,1.417804 -1.27036,4.287439 z" />
      <path
         id="path863"
         style="font-style:normal;font-variant:normal;font-weight:bold;font-stretch:normal;font-family:Arial;-inkscape-font-specification:'Arial Bold';letter-spacing:-0.569228px;stroke-width:0.580734"
         d="M 233.45019,106.81493 V 90.186929 h 12.32922 v 2.812923 h -8.97186 v 3.686291 h 8.34803 v 2.80158 h -8.34803 v 4.525627 h 9.28945 v 2.80158 z" />
      <path
         id="path865"
         style="font-style:normal;font-variant:normal;font-weight:bold;font-stretch:normal;font-family:Arial;-inkscape-font-specification:'Arial Bold';letter-spacing:-0.569228px;stroke-width:0.580734"
         d="M 248.43144,106.81493 V 90.186929 h 3.26662 l 6.80545,11.104241 V 90.186929 h 3.11917 v 16.628001 h -3.3687 L 251.5506,95.971569 v 10.843361 z" />
      <path
         id="path867"
         style="font-style:normal;font-variant:normal;font-weight:bold;font-stretch:normal;font-family:Arial;-inkscape-font-specification:'Arial Bold';letter-spacing:-0.569228px;stroke-width:0.580734"
         d="M 268.35798,106.81493 V 92.999852 h -4.93396 v -2.812923 h 13.21394 v 2.812923 h -4.92262 v 13.815078 z" />
      <path
         id="path869"
         style="font-style:normal;font-variant:normal;font-weight:bold;font-stretch:normal;font-family:Arial;-inkscape-font-specification:'Arial Bold';letter-spacing:-0.569228px;stroke-width:0.580734"
         d="m 291.51712,106.81493 h -3.65226 l -1.45183,-3.77703 h -6.64667 l -1.37243,3.77703 h -3.56152 l 6.47652,-16.628001 h 3.55018 z m -6.18162,-6.57861 -2.29117,-6.170279 -2.24581,6.170279 z" />
      <path
         id="path871"
         style="font-style:normal;font-variant:normal;font-weight:bold;font-stretch:normal;font-family:Arial;-inkscape-font-specification:'Arial Bold';letter-spacing:-0.569228px;stroke-width:0.580734"
         d="m 301.99332,106.81493 -5.94344,-16.628001 h 3.64092 l 4.20805,12.306541 4.07193,-12.306541 h 3.56152 l -5.95477,16.628001 z" />
      <path
         id="path873"
         style="font-style:normal;font-variant:normal;font-weight:bold;font-stretch:normal;font-family:Arial;-inkscape-font-specification:'Arial Bold';letter-spacing:-0.569228px;stroke-width:0.580734"
         d="m 325.96911,106.81493 h -3.65226 l -1.45183,-3.77703 h -6.64667 l -1.37243,3.77703 h -3.56153 l 6.47653,-16.628001 h 3.55018 z m -6.18163,-6.57861 -2.29117,-6.170279 -2.2458,6.170279 z" />
      <path
         id="path875"
         style="font-style:normal;font-variant:normal;font-weight:bold;font-stretch:normal;font-family:Arial;-inkscape-font-specification:'Arial Bold';letter-spacing:-0.569228px;stroke-width:0.580734"
         d="M 327.28272,106.81493 V 90.323038 h 3.35736 v 13.690312 h 8.34803 v 2.80158 z" />
      <path
         id="path877"
         style="font-style:normal;font-variant:normal;font-weight:bold;font-stretch:normal;font-family:Arial;-inkscape-font-specification:'Arial Bold';letter-spacing:-0.569228px;stroke-width:0.580734"
         d="M 340.82348,106.81493 V 90.186929 h 12.32922 v 2.812923 h -8.97186 v 3.686291 h 8.34802 v 2.80158 h -8.34802 v 4.525627 h 9.28945 v 2.80158 z" />
      <path
         id="path879"
         style="font-style:normal;font-variant:normal;font-weight:bold;font-stretch:normal;font-family:Arial;-inkscape-font-specification:'Arial Bold';letter-spacing:-0.569228px;stroke-width:0.580734"
         d="M 355.66861,106.81493 V 90.186929 h 3.35736 v 16.628001 z" />
    </g>
    <g
       transform="translate(-3.1066981)"
       style="font-size:6.88207px;line-height:1.05;font-family:Arial;-inkscape-font-specification:Arial;stroke-width:0.172051"
       id="text1875"
       aria-label="El siicon no se magna, ea poenta sì">
      <path
         id="path882"
         style="stroke-width:0.172051"
         d="m 201.02711,132.26938 v -4.92633 h 3.56201 v 0.58135 h -2.9101 v 1.50881 h 2.72528 v 0.57799 h -2.72528 v 1.67683 h 3.02435 v 0.58135 z" />
      <path
         id="path884"
         style="stroke-width:0.172051"
         d="m 205.51995,132.26938 v -4.92633 h 0.60486 v 4.92633 z" />
      <path
         id="path886"
         style="stroke-width:0.172051"
         d="m 208.73247,131.20414 0.59815,-0.0941 q 0.0504,0.35956 0.27892,0.5511 0.23186,0.19154 0.64519,0.19154 0.41669,0 0.61831,-0.16802 0.20162,-0.17138 0.20162,-0.39988 0,-0.20499 -0.1781,-0.3226 -0.12433,-0.0806 -0.61831,-0.20498 -0.66535,-0.16802 -0.9241,-0.289 -0.25539,-0.12433 -0.38981,-0.3394 -0.13105,-0.21842 -0.13105,-0.48053 0,-0.23859 0.10753,-0.44021 0.11089,-0.20499 0.29907,-0.3394 0.14114,-0.10417 0.38309,-0.17474 0.2453,-0.0739 0.52422,-0.0739 0.42005,0 0.73592,0.12097 0.31924,0.12098 0.47046,0.32932 0.15121,0.20498 0.20834,0.5511 l -0.59143,0.0807 q -0.0403,-0.27555 -0.23523,-0.43013 -0.19154,-0.15457 -0.54438,-0.15457 -0.41669,0 -0.59479,0.13777 -0.1781,0.13778 -0.1781,0.3226 0,0.11761 0.0739,0.2117 0.0739,0.0975 0.23187,0.1613 0.0907,0.0336 0.5343,0.15458 0.64183,0.17138 0.89386,0.28227 0.25539,0.10753 0.39989,0.31588 0.14449,0.20834 0.14449,0.5175 0,0.30243 -0.1781,0.57126 -0.17474,0.26547 -0.50741,0.41333 -0.33268,0.1445 -0.75273,0.1445 -0.6956,0 -1.06188,-0.289 -0.36292,-0.28899 -0.46374,-0.85689 z" />
      <path
         id="path888"
         style="stroke-width:0.172051"
         d="m 212.41882,128.03865 v -0.6956 h 0.60487 v 0.6956 z m 0,4.23073 v -3.56873 h 0.60487 v 3.56873 z" />
      <path
         id="path890"
         style="stroke-width:0.172051"
         d="m 213.95115,128.03865 v -0.6956 h 0.60487 v 0.6956 z m 0,4.23073 v -3.56873 h 0.60487 v 3.56873 z" />
      <path
         id="path892"
         style="stroke-width:0.172051"
         d="m 217.80888,130.96219 0.59478,0.0773 q -0.0975,0.61495 -0.50069,0.96443 -0.39989,0.34612 -0.9846,0.34612 -0.73256,0 -1.17949,-0.47718 -0.44357,-0.48053 -0.44357,-1.37439 0,-0.57799 0.19154,-1.01148 0.19154,-0.43349 0.58135,-0.64856 0.39316,-0.21842 0.85353,-0.21842 0.58135,0 0.95099,0.29571 0.36965,0.29236 0.47382,0.83338 l -0.58807,0.0907 q -0.084,-0.35956 -0.29907,-0.54102 -0.21171,-0.18146 -0.51414,-0.18146 -0.45702,0 -0.74265,0.32931 -0.28563,0.32596 -0.28563,1.035 0,0.71913 0.27555,1.04508 0.27555,0.32596 0.71912,0.32596 0.3562,0 0.59479,-0.21842 0.23859,-0.21843 0.30244,-0.67208 z" />
      <path
         id="path894"
         style="stroke-width:0.172051"
         d="m 218.69602,130.48501 q 0,-0.99131 0.5511,-1.46848 0.46037,-0.39653 1.12237,-0.39653 0.73592,0 1.20302,0.4839 0.46709,0.48053 0.46709,1.33071 0,0.68888 -0.20834,1.0854 -0.20499,0.39317 -0.60151,0.61159 -0.39317,0.21843 -0.86026,0.21843 -0.74937,0 -1.2131,-0.48054 -0.46037,-0.48053 -0.46037,-1.38448 z m 0.62167,0 q 0,0.68552 0.29907,1.02828 0.29908,0.3394 0.75273,0.3394 0.45029,0 0.74937,-0.34276 0.29907,-0.34276 0.29907,-1.04508 0,-0.66199 -0.30243,-1.00139 -0.29908,-0.34276 -0.74601,-0.34276 -0.45365,0 -0.75273,0.3394 -0.29907,0.3394 -0.29907,1.02491 z" />
      <path
         id="path896"
         style="stroke-width:0.172051"
         d="m 222.752,132.26938 v -3.56873 h 0.54439 v 0.50742 q 0.39316,-0.58807 1.13581,-0.58807 0.32259,0 0.59142,0.11761 0.2722,0.11426 0.40661,0.30244 0.13442,0.18818 0.18818,0.44693 0.0336,0.16802 0.0336,0.58807 v 2.19433 h -0.60487 v -2.17081 q 0,-0.36964 -0.0706,-0.5511 -0.0706,-0.18483 -0.25203,-0.29236 -0.1781,-0.11089 -0.42005,-0.11089 -0.38644,0 -0.66872,0.24531 -0.27891,0.24531 -0.27891,0.93082 v 1.94903 z" />
      <path
         id="path898"
         style="stroke-width:0.172051"
         d="m 228.49154,132.26938 v -3.56873 h 0.54439 v 0.50742 q 0.39316,-0.58807 1.13581,-0.58807 0.32259,0 0.59142,0.11761 0.2722,0.11426 0.40661,0.30244 0.13442,0.18818 0.18818,0.44693 0.0336,0.16802 0.0336,0.58807 v 2.19433 h -0.60487 v -2.17081 q 0,-0.36964 -0.0706,-0.5511 -0.0706,-0.18483 -0.25203,-0.29236 -0.1781,-0.11089 -0.42005,-0.11089 -0.38644,0 -0.66872,0.24531 -0.27891,0.24531 -0.27891,0.93082 v 1.94903 z" />
      <path
         id="path900"
         style="stroke-width:0.172051"
         d="m 232.09724,130.48501 q 0,-0.99131 0.5511,-1.46848 0.46037,-0.39653 1.12237,-0.39653 0.73592,0 1.20302,0.4839 0.46709,0.48053 0.46709,1.33071 0,0.68888 -0.20834,1.0854 -0.20499,0.39317 -0.60151,0.61159 -0.39317,0.21843 -0.86026,0.21843 -0.74937,0 -1.2131,-0.48054 -0.46037,-0.48053 -0.46037,-1.38448 z m 0.62167,0 q 0,0.68552 0.29907,1.02828 0.29908,0.3394 0.75273,0.3394 0.45029,0 0.74936,-0.34276 0.29908,-0.34276 0.29908,-1.04508 0,-0.66199 -0.30244,-1.00139 -0.29907,-0.34276 -0.746,-0.34276 -0.45365,0 -0.75273,0.3394 -0.29907,0.3394 -0.29907,1.02491 z" />
      <path
         id="path902"
         style="stroke-width:0.172051"
         d="m 237.81997,131.20414 0.59815,-0.0941 q 0.0504,0.35956 0.27891,0.5511 0.23187,0.19154 0.6452,0.19154 0.41669,0 0.61831,-0.16802 0.20162,-0.17138 0.20162,-0.39988 0,-0.20499 -0.1781,-0.3226 -0.12433,-0.0806 -0.61831,-0.20498 -0.66536,-0.16802 -0.92411,-0.289 -0.25538,-0.12433 -0.3898,-0.3394 -0.13106,-0.21842 -0.13106,-0.48053 0,-0.23859 0.10754,-0.44021 0.11089,-0.20499 0.29907,-0.3394 0.14114,-0.10417 0.38309,-0.17474 0.2453,-0.0739 0.52422,-0.0739 0.42004,0 0.73592,0.12097 0.31924,0.12098 0.47045,0.32932 0.15122,0.20498 0.20835,0.5511 l -0.59143,0.0807 q -0.0403,-0.27555 -0.23523,-0.43013 -0.19154,-0.15457 -0.54438,-0.15457 -0.41669,0 -0.59479,0.13777 -0.1781,0.13778 -0.1781,0.3226 0,0.11761 0.0739,0.2117 0.0739,0.0975 0.23187,0.1613 0.0907,0.0336 0.5343,0.15458 0.64183,0.17138 0.89386,0.28227 0.25539,0.10753 0.39989,0.31588 0.14449,0.20834 0.14449,0.5175 0,0.30243 -0.1781,0.57126 -0.17474,0.26547 -0.50742,0.41333 -0.33267,0.1445 -0.75272,0.1445 -0.6956,0 -1.06188,-0.289 -0.36293,-0.28899 -0.46374,-0.85689 z" />
      <path
         id="path904"
         style="stroke-width:0.172051"
         d="m 243.94596,131.12013 0.62503,0.0773 q -0.14786,0.54774 -0.54774,0.85017 -0.39989,0.30244 -1.02156,0.30244 -0.78297,0 -1.24334,-0.48054 -0.45702,-0.48389 -0.45702,-1.35423 0,-0.90059 0.46374,-1.39792 0.46373,-0.49734 1.20302,-0.49734 0.71576,0 1.16941,0.48726 0.45365,0.48725 0.45365,1.37103 0,0.0538 -0.003,0.1613 h -2.66142 q 0.0336,0.58807 0.33267,0.90058 0.29908,0.31252 0.74601,0.31252 0.33268,0 0.5679,-0.17474 0.23523,-0.17474 0.37301,-0.55782 z m -1.98599,-0.97788 h 1.99271 q -0.0403,-0.45029 -0.22851,-0.67543 -0.28899,-0.34948 -0.74936,-0.34948 -0.41669,0 -0.70232,0.27891 -0.28228,0.27891 -0.31252,0.746 z" />
      <path
         id="path906"
         style="stroke-width:0.172051"
         d="m 247.2425,132.26938 v -3.56873 h 0.54102 v 0.5007 q 0.16802,-0.26211 0.44693,-0.42005 0.27891,-0.1613 0.63511,-0.1613 0.39653,0 0.64856,0.16466 0.25539,0.16466 0.35956,0.46037 0.42341,-0.62503 1.10221,-0.62503 0.53094,0 0.81657,0.29571 0.28563,0.29236 0.28563,0.90395 v 2.44972 h -0.60151 v -2.2481 q 0,-0.36292 -0.0605,-0.52086 -0.0571,-0.1613 -0.21171,-0.25875 -0.15458,-0.0975 -0.36292,-0.0975 -0.37636,0 -0.62503,0.25203 -0.24867,0.24867 -0.24867,0.79977 v 2.07336 h -0.60487 v -2.31867 q 0,-0.40324 -0.14786,-0.60487 -0.14785,-0.20162 -0.48389,-0.20162 -0.25539,0 -0.47382,0.13442 -0.21506,0.13441 -0.31251,0.39316 -0.0974,0.25875 -0.0974,0.74601 v 1.85157 z" />
      <path
         id="path908"
         style="stroke-width:0.172051"
         d="m 255.31078,131.82917 q -0.33604,0.28563 -0.64855,0.40324 -0.30916,0.11762 -0.66536,0.11762 -0.58807,0 -0.90394,-0.28563 -0.31588,-0.289 -0.31588,-0.73593 0,-0.26211 0.11761,-0.47717 0.12098,-0.21843 0.31252,-0.34948 0.1949,-0.13106 0.43685,-0.19827 0.1781,-0.047 0.53766,-0.0907 0.73257,-0.0874 1.07868,-0.20834 0.003,-0.12434 0.003,-0.15794 0,-0.36964 -0.17138,-0.52086 -0.23187,-0.20498 -0.68888,-0.20498 -0.42677,0 -0.63176,0.15121 -0.20162,0.14786 -0.29907,0.52759 l -0.59143,-0.0806 q 0.0806,-0.37973 0.26547,-0.61159 0.18482,-0.23523 0.5343,-0.35957 0.34948,-0.12769 0.80986,-0.12769 0.45701,0 0.74264,0.10753 0.28563,0.10753 0.42005,0.27219 0.13442,0.1613 0.18818,0.40997 0.0302,0.15458 0.0302,0.55782 v 0.8065 q 0,0.84345 0.037,1.0686 0.0403,0.22179 0.15458,0.42677 h -0.63176 q -0.0941,-0.18818 -0.12097,-0.44021 z m -0.0504,-1.35088 q -0.32931,0.13442 -0.98795,0.22851 -0.373,0.0538 -0.52758,0.12097 -0.15458,0.0672 -0.23859,0.19827 -0.084,0.12769 -0.084,0.28563 0,0.24195 0.18146,0.40325 0.18483,0.16129 0.53767,0.16129 0.34948,0 0.62167,-0.15121 0.27219,-0.15458 0.39988,-0.42005 0.0974,-0.20499 0.0974,-0.60487 z" />
      <path
         id="path910"
         style="stroke-width:0.172051"
         d="m 256.70198,132.56509 0.58807,0.0874 q 0.037,0.27219 0.20498,0.39653 0.22515,0.16802 0.61495,0.16802 0.42005,0 0.64856,-0.16802 0.2285,-0.16802 0.30915,-0.47046 0.047,-0.18482 0.0437,-0.77624 -0.39653,0.46709 -0.98796,0.46709 -0.73592,0 -1.13917,-0.53094 -0.40324,-0.53094 -0.40324,-1.27359 0,-0.51078 0.18482,-0.94091 0.18482,-0.43349 0.5343,-0.66871 0.35284,-0.23523 0.82666,-0.23523 0.63175,0 1.04171,0.51078 v -0.43013 h 0.55783 v 3.08483 q 0,0.83338 -0.17138,1.1795 -0.16802,0.34948 -0.53766,0.5511 -0.36628,0.20162 -0.90395,0.20162 -0.63847,0 -1.03163,-0.28899 -0.39317,-0.28563 -0.37973,-0.86362 z m 0.5007,-2.14392 q 0,0.70232 0.27891,1.02491 0.27891,0.3226 0.69896,0.3226 0.41669,0 0.69896,-0.31924 0.28227,-0.32259 0.28227,-1.00811 0,-0.65528 -0.29235,-0.98795 -0.28899,-0.33268 -0.69896,-0.33268 -0.40325,0 -0.68552,0.32931 -0.28227,0.32596 -0.28227,0.97116 z" />
      <path
         id="path912"
         style="stroke-width:0.172051"
         d="m 260.64372,132.26938 v -3.56873 h 0.54438 v 0.50742 q 0.39316,-0.58807 1.13581,-0.58807 0.3226,0 0.59143,0.11761 0.27219,0.11426 0.4066,0.30244 0.13442,0.18818 0.18818,0.44693 0.0336,0.16802 0.0336,0.58807 v 2.19433 h -0.60487 v -2.17081 q 0,-0.36964 -0.0706,-0.5511 -0.0706,-0.18483 -0.25203,-0.29236 -0.1781,-0.11089 -0.42005,-0.11089 -0.38644,0 -0.66871,0.24531 -0.27892,0.24531 -0.27892,0.93082 v 1.94903 z" />
      <path
         id="path914"
         style="stroke-width:0.172051"
         d="m 266.8033,131.82917 q -0.33604,0.28563 -0.64855,0.40324 -0.30916,0.11762 -0.66536,0.11762 -0.58807,0 -0.90394,-0.28563 -0.31588,-0.289 -0.31588,-0.73593 0,-0.26211 0.11761,-0.47717 0.12098,-0.21843 0.31252,-0.34948 0.1949,-0.13106 0.43685,-0.19827 0.1781,-0.047 0.53766,-0.0907 0.73256,-0.0874 1.07868,-0.20834 0.003,-0.12434 0.003,-0.15794 0,-0.36964 -0.17137,-0.52086 -0.23187,-0.20498 -0.68888,-0.20498 -0.42677,0 -0.63176,0.15121 -0.20162,0.14786 -0.29907,0.52759 l -0.59143,-0.0806 q 0.0806,-0.37973 0.26547,-0.61159 0.18482,-0.23523 0.5343,-0.35957 0.34948,-0.12769 0.80986,-0.12769 0.45701,0 0.74264,0.10753 0.28563,0.10753 0.42005,0.27219 0.13441,0.1613 0.18818,0.40997 0.0302,0.15458 0.0302,0.55782 v 0.8065 q 0,0.84345 0.037,1.0686 0.0403,0.22179 0.15458,0.42677 h -0.63176 q -0.0941,-0.18818 -0.12097,-0.44021 z m -0.0504,-1.35088 q -0.32931,0.13442 -0.98795,0.22851 -0.373,0.0538 -0.52758,0.12097 -0.15458,0.0672 -0.23859,0.19827 -0.084,0.12769 -0.084,0.28563 0,0.24195 0.18146,0.40325 0.18483,0.16129 0.53767,0.16129 0.34948,0 0.62167,-0.15121 0.27219,-0.15458 0.39988,-0.42005 0.0974,-0.20499 0.0974,-0.60487 z" />
      <path
         id="path916"
         style="stroke-width:0.172051"
         d="m 268.46333,132.26938 v -0.68888 h 0.68888 v 0.68888 q 0,0.37972 -0.13442,0.61159 -0.13441,0.23523 -0.42677,0.36292 l -0.16802,-0.25875 q 0.19155,-0.084 0.28228,-0.24867 0.0907,-0.1613 0.10081,-0.46709 z" />
      <path
         id="path918"
         style="stroke-width:0.172051"
         d="m 274.5658,131.12013 0.62503,0.0773 q -0.14786,0.54774 -0.54774,0.85017 -0.39989,0.30244 -1.02156,0.30244 -0.78297,0 -1.24334,-0.48054 -0.45702,-0.48389 -0.45702,-1.35423 0,-0.90059 0.46374,-1.39792 0.46373,-0.49734 1.20301,-0.49734 0.71577,0 1.16942,0.48726 0.45365,0.48725 0.45365,1.37103 0,0.0538 -0.003,0.1613 h -2.66143 q 0.0336,0.58807 0.33268,0.90058 0.29908,0.31252 0.74601,0.31252 0.33268,0 0.5679,-0.17474 0.23523,-0.17474 0.37301,-0.55782 z m -1.98599,-0.97788 h 1.99271 q -0.0403,-0.45029 -0.22851,-0.67543 -0.28899,-0.34948 -0.74937,-0.34948 -0.41668,0 -0.70232,0.27891 -0.28227,0.27891 -0.31251,0.746 z" />
      <path
         id="path920"
         style="stroke-width:0.172051"
         d="m 278.28238,131.82917 q -0.33604,0.28563 -0.64856,0.40324 -0.30915,0.11762 -0.66535,0.11762 -0.58807,0 -0.90395,-0.28563 -0.31587,-0.289 -0.31587,-0.73593 0,-0.26211 0.11761,-0.47717 0.12097,-0.21843 0.31252,-0.34948 0.1949,-0.13106 0.43685,-0.19827 0.1781,-0.047 0.53766,-0.0907 0.73256,-0.0874 1.07868,-0.20834 0.003,-0.12434 0.003,-0.15794 0,-0.36964 -0.17138,-0.52086 -0.23187,-0.20498 -0.68888,-0.20498 -0.42677,0 -0.63175,0.15121 -0.20162,0.14786 -0.29907,0.52759 l -0.59143,-0.0806 q 0.0806,-0.37973 0.26547,-0.61159 0.18482,-0.23523 0.5343,-0.35957 0.34948,-0.12769 0.80985,-0.12769 0.45701,0 0.74265,0.10753 0.28563,0.10753 0.42005,0.27219 0.13441,0.1613 0.18818,0.40997 0.0302,0.15458 0.0302,0.55782 v 0.8065 q 0,0.84345 0.037,1.0686 0.0403,0.22179 0.15457,0.42677 h -0.63175 q -0.0941,-0.18818 -0.12097,-0.44021 z m -0.0504,-1.35088 q -0.32932,0.13442 -0.98795,0.22851 -0.37301,0.0538 -0.52758,0.12097 -0.15458,0.0672 -0.23859,0.19827 -0.084,0.12769 -0.084,0.28563 0,0.24195 0.18146,0.40325 0.18482,0.16129 0.53766,0.16129 0.34948,0 0.62167,-0.15121 0.27219,-0.15458 0.39989,-0.42005 0.0974,-0.20499 0.0974,-0.60487 z" />
      <path
         id="path922"
         style="stroke-width:0.172051"
         d="m 281.69317,133.63706 v -4.93641 h 0.5511 v 0.46373 q 0.1949,-0.27219 0.44021,-0.4066 0.24531,-0.13778 0.59479,-0.13778 0.45701,0 0.80649,0.23523 0.34948,0.23522 0.52758,0.66535 0.1781,0.42677 0.1781,0.93755 0,0.54774 -0.19826,0.98795 -0.1949,0.43685 -0.57126,0.67208 -0.37301,0.23187 -0.78633,0.23187 -0.30244,0 -0.54439,-0.1277 -0.23858,-0.12769 -0.39316,-0.32259 v 1.73732 z m 0.54774,-3.13188 q 0,0.68888 0.27891,1.01819 0.27892,0.32932 0.67544,0.32932 0.40325,0 0.68888,-0.3394 0.28899,-0.34276 0.28899,-1.05852 0,-0.68216 -0.28227,-1.02156 -0.27891,-0.3394 -0.66872,-0.3394 -0.38644,0 -0.68551,0.36293 -0.29572,0.35956 -0.29572,1.04844 z" />
      <path
         id="path924"
         style="stroke-width:0.172051"
         d="m 285.29886,130.48501 q 0,-0.99131 0.55111,-1.46848 0.46037,-0.39653 1.12237,-0.39653 0.73592,0 1.20301,0.4839 0.4671,0.48053 0.4671,1.33071 0,0.68888 -0.20835,1.0854 -0.20498,0.39317 -0.6015,0.61159 -0.39317,0.21843 -0.86026,0.21843 -0.74937,0 -1.2131,-0.48054 -0.46038,-0.48053 -0.46038,-1.38448 z m 0.62168,0 q 0,0.68552 0.29907,1.02828 0.29907,0.3394 0.75273,0.3394 0.45029,0 0.74936,-0.34276 0.29908,-0.34276 0.29908,-1.04508 0,-0.66199 -0.30244,-1.00139 -0.29907,-0.34276 -0.746,-0.34276 -0.45366,0 -0.75273,0.3394 -0.29907,0.3394 -0.29907,1.02491 z" />
      <path
         id="path926"
         style="stroke-width:0.172051"
         d="m 291.79785,131.12013 0.62503,0.0773 q -0.14785,0.54774 -0.54774,0.85017 -0.39989,0.30244 -1.02156,0.30244 -0.78297,0 -1.24334,-0.48054 -0.45701,-0.48389 -0.45701,-1.35423 0,-0.90059 0.46373,-1.39792 0.46373,-0.49734 1.20302,-0.49734 0.71576,0 1.16941,0.48726 0.45366,0.48725 0.45366,1.37103 0,0.0538 -0.003,0.1613 h -2.66143 q 0.0336,0.58807 0.33268,0.90058 0.29907,0.31252 0.746,0.31252 0.33268,0 0.56791,-0.17474 0.23523,-0.17474 0.373,-0.55782 z m -1.98599,-0.97788 h 1.99271 q -0.0403,-0.45029 -0.2285,-0.67543 -0.289,-0.34948 -0.74937,-0.34948 -0.41669,0 -0.70232,0.27891 -0.28227,0.27891 -0.31252,0.746 z" />
      <path
         id="path928"
         style="stroke-width:0.172051"
         d="m 293.18569,132.26938 v -3.56873 h 0.54438 v 0.50742 q 0.39317,-0.58807 1.13582,-0.58807 0.32259,0 0.59142,0.11761 0.27219,0.11426 0.40661,0.30244 0.13442,0.18818 0.18818,0.44693 0.0336,0.16802 0.0336,0.58807 v 2.19433 h -0.60487 v -2.17081 q 0,-0.36964 -0.0706,-0.5511 -0.0706,-0.18483 -0.25203,-0.29236 -0.1781,-0.11089 -0.42005,-0.11089 -0.38644,0 -0.66872,0.24531 -0.27891,0.24531 -0.27891,0.93082 v 1.94903 z" />
      <path
         id="path930"
         style="stroke-width:0.172051"
         d="m 298.33717,131.72836 0.0874,0.5343 q -0.25539,0.0538 -0.45702,0.0538 -0.32932,0 -0.51078,-0.10417 -0.18146,-0.10417 -0.25539,-0.27219 -0.0739,-0.17138 -0.0739,-0.71576 v -2.0532 h -0.44357 v -0.47045 h 0.44357 v -0.88378 l 0.60151,-0.36292 v 1.2467 h 0.60823 v 0.47045 h -0.60823 v 2.0868 q 0,0.25875 0.0302,0.33268 0.0336,0.0739 0.10417,0.11761 0.0739,0.0437 0.20834,0.0437 0.10082,0 0.26548,-0.0235 z" />
      <path
         id="path932"
         style="stroke-width:0.172051"
         d="m 301.25398,131.82917 q -0.33604,0.28563 -0.64855,0.40324 -0.30916,0.11762 -0.66536,0.11762 -0.58807,0 -0.90394,-0.28563 -0.31588,-0.289 -0.31588,-0.73593 0,-0.26211 0.11761,-0.47717 0.12098,-0.21843 0.31252,-0.34948 0.1949,-0.13106 0.43685,-0.19827 0.1781,-0.047 0.53766,-0.0907 0.73256,-0.0874 1.07868,-0.20834 0.003,-0.12434 0.003,-0.15794 0,-0.36964 -0.17138,-0.52086 -0.23186,-0.20498 -0.68887,-0.20498 -0.42677,0 -0.63176,0.15121 -0.20162,0.14786 -0.29907,0.52759 l -0.59143,-0.0806 q 0.0807,-0.37973 0.26547,-0.61159 0.18482,-0.23523 0.5343,-0.35957 0.34948,-0.12769 0.80986,-0.12769 0.45701,0 0.74264,0.10753 0.28563,0.10753 0.42005,0.27219 0.13441,0.1613 0.18818,0.40997 0.0302,0.15458 0.0302,0.55782 v 0.8065 q 0,0.84345 0.037,1.0686 0.0403,0.22179 0.15458,0.42677 h -0.63176 q -0.0941,-0.18818 -0.12097,-0.44021 z m -0.0504,-1.35088 q -0.32931,0.13442 -0.98795,0.22851 -0.373,0.0538 -0.52758,0.12097 -0.15458,0.0672 -0.23859,0.19827 -0.084,0.12769 -0.084,0.28563 0,0.24195 0.18146,0.40325 0.18483,0.16129 0.53767,0.16129 0.34948,0 0.62167,-0.15121 0.27219,-0.15458 0.39988,-0.42005 0.0975,-0.20499 0.0975,-0.60487 z" />
      <path
         id="path934"
         style="stroke-width:0.172051"
         d="m 304.42282,131.20414 0.59815,-0.0941 q 0.0504,0.35956 0.27891,0.5511 0.23186,0.19154 0.64519,0.19154 0.41669,0 0.61831,-0.16802 0.20163,-0.17138 0.20163,-0.39988 0,-0.20499 -0.1781,-0.3226 -0.12434,-0.0806 -0.61832,-0.20498 -0.66535,-0.16802 -0.9241,-0.289 -0.25539,-0.12433 -0.38981,-0.3394 -0.13105,-0.21842 -0.13105,-0.48053 0,-0.23859 0.10753,-0.44021 0.11089,-0.20499 0.29908,-0.3394 0.14113,-0.10417 0.38308,-0.17474 0.24531,-0.0739 0.52422,-0.0739 0.42005,0 0.73592,0.12097 0.31924,0.12098 0.47046,0.32932 0.15122,0.20498 0.20834,0.5511 l -0.59143,0.0807 q -0.0403,-0.27555 -0.23522,-0.43013 -0.19154,-0.15457 -0.54439,-0.15457 -0.41668,0 -0.59478,0.13777 -0.1781,0.13778 -0.1781,0.3226 0,0.11761 0.0739,0.2117 0.0739,0.0975 0.23187,0.1613 0.0907,0.0336 0.5343,0.15458 0.64184,0.17138 0.89387,0.28227 0.25538,0.10753 0.39988,0.31588 0.1445,0.20834 0.1445,0.5175 0,0.30243 -0.1781,0.57126 -0.17474,0.26547 -0.50742,0.41333 -0.33268,0.1445 -0.75273,0.1445 -0.6956,0 -1.06188,-0.289 -0.36292,-0.28899 -0.46373,-0.85689 z" />
      <path
         id="path936"
         style="stroke-width:0.172051"
         d="m 308.31751,132.26938 v -3.56873 h 0.60487 v 3.56873 z m 0.71576,-4.0123 h -0.48725 l -0.77625,-0.94091 h 0.80985 z" />
    </g>
    <g
       transform="translate(-3.1066981)"
       style="font-size:9.06407px;line-height:1.25;font-family:Arial;-inkscape-font-specification:Arial;stroke-width:0.226602"
       id="text1881"
       aria-label="poentavalei.com">
      <path
         id="path939"
         style="stroke-width:0.226602"
         d="m 201.01503,159.51205 v -6.50153 h 0.72583 v 0.61077 q 0.2567,-0.3585 0.57978,-0.53553 0.32309,-0.18146 0.78337,-0.18146 0.60191,0 1.0622,0.30981 0.46028,0.30981 0.69485,0.87631 0.23457,0.56208 0.23457,1.2348 0,0.72141 -0.26112,1.30119 -0.2567,0.57536 -0.75239,0.88517 -0.49127,0.30538 -1.03564,0.30538 -0.39833,0 -0.71699,-0.16818 -0.31423,-0.16818 -0.51782,-0.42488 v 2.28815 z m 0.7214,-4.12486 q 0,0.90729 0.36735,1.34102 0.36734,0.43373 0.88959,0.43373 0.53109,0 0.90729,-0.44701 0.38062,-0.45143 0.38062,-1.39413 0,-0.89844 -0.37177,-1.34545 -0.36734,-0.44701 -0.88074,-0.44701 -0.50897,0 -0.90286,0.47799 -0.38948,0.47356 -0.38948,1.38086 z" />
      <path
         id="path941"
         style="stroke-width:0.226602"
         d="m 205.76393,155.36063 q 0,-1.30561 0.72583,-1.93408 0.60634,-0.52225 1.47822,-0.52225 0.96926,0 1.58444,0.63732 0.61519,0.63289 0.61519,1.75262 0,0.9073 -0.2744,1.42954 -0.26997,0.51782 -0.79222,0.8055 -0.51782,0.28768 -1.13301,0.28768 -0.98695,0 -1.59772,-0.63289 -0.60633,-0.63289 -0.60633,-1.82344 z m 0.81877,0 q 0,0.90287 0.3939,1.3543 0.3939,0.44701 0.99138,0.44701 0.59306,0 0.98696,-0.45144 0.3939,-0.45143 0.3939,-1.37642 0,-0.87189 -0.39833,-1.3189 -0.39389,-0.45143 -0.98253,-0.45143 -0.59748,0 -0.99138,0.44701 -0.3939,0.447 -0.3939,1.34987 z" />
      <path
         id="path943"
         style="stroke-width:0.226602"
         d="m 214.32345,156.19711 0.8232,0.10179 q -0.19473,0.72141 -0.7214,1.11974 -0.52668,0.39832 -1.34545,0.39832 -1.03122,0 -1.63755,-0.63289 -0.60191,-0.63732 -0.60191,-1.78361 0,-1.18611 0.61076,-1.84114 0.61076,-0.65502 1.58444,-0.65502 0.9427,0 1.54018,0.64175 0.59749,0.64174 0.59749,1.80573 0,0.0708 -0.004,0.21244 h -3.50524 q 0.0443,0.77452 0.43815,1.18612 0.3939,0.4116 0.98253,0.4116 0.43816,0 0.74797,-0.23014 0.3098,-0.23015 0.49126,-0.73469 z m -2.61565,-1.28791 h 2.6245 q -0.0531,-0.59306 -0.30095,-0.88959 -0.38062,-0.46029 -0.98696,-0.46029 -0.5488,0 -0.92499,0.36735 -0.37177,0.36734 -0.4116,0.98253 z" />
      <path
         id="path945"
         style="stroke-width:0.226602"
         d="m 216.15131,157.71074 v -4.70022 h 0.71699 v 0.6683 q 0.51782,-0.77452 1.49592,-0.77452 0.42488,0 0.77895,0.15491 0.35849,0.15047 0.53552,0.39832 0.17703,0.24785 0.24784,0.58863 0.0443,0.22129 0.0443,0.77452 v 2.89006 h -0.79664 v -2.85908 q 0,-0.48684 -0.093,-0.72583 -0.0929,-0.24342 -0.33193,-0.38505 -0.23457,-0.14605 -0.55323,-0.14605 -0.50897,0 -0.88074,0.32309 -0.36734,0.32308 -0.36734,1.22595 v 2.56697 z" />
      <path
         id="path947"
         style="stroke-width:0.226602"
         d="m 222.93609,156.99818 0.11507,0.70371 q -0.33636,0.0708 -0.60191,0.0708 -0.43373,0 -0.67272,-0.1372 -0.239,-0.1372 -0.33637,-0.35849 -0.0974,-0.22572 -0.0974,-0.9427 v -2.70417 h -0.58421 v -0.61962 h 0.58421 v -1.16399 l 0.79222,-0.47798 v 1.64197 h 0.80107 v 0.61962 h -0.80107 v 2.74843 q 0,0.34079 0.0398,0.43815 0.0443,0.0974 0.1372,0.15491 0.0974,0.0575 0.2744,0.0575 0.13277,0 0.34964,-0.031 z" />
      <path
         id="path949"
         style="stroke-width:0.226602"
         d="m 226.7777,157.13096 q -0.44259,0.37619 -0.85419,0.5311 -0.40717,0.1549 -0.87631,0.1549 -0.77452,0 -1.19054,-0.3762 -0.41603,-0.38062 -0.41603,-0.96925 0,-0.34521 0.1549,-0.62846 0.15933,-0.28768 0.41161,-0.46029 0.25669,-0.17261 0.57535,-0.26112 0.23457,-0.062 0.70813,-0.1195 0.96483,-0.11507 1.42069,-0.2744 0.004,-0.16376 0.004,-0.20801 0,-0.48684 -0.22571,-0.68601 -0.30538,-0.26997 -0.90729,-0.26997 -0.56208,0 -0.83206,0.19916 -0.26555,0.19474 -0.39389,0.69485 l -0.77895,-0.10621 q 0.10622,-0.50012 0.34964,-0.8055 0.24342,-0.30981 0.70371,-0.47357 0.46028,-0.16818 1.06662,-0.16818 0.60191,0 0.9781,0.14163 0.3762,0.14163 0.55323,0.35849 0.17703,0.21244 0.24784,0.53995 0.0398,0.20359 0.0398,0.73469 v 1.06219 q 0,1.11088 0.0487,1.40741 0.0531,0.2921 0.20359,0.56208 h -0.83205 q -0.12393,-0.24785 -0.15933,-0.57978 z m -0.0664,-1.77918 q -0.43373,0.17703 -1.30119,0.30096 -0.49127,0.0708 -0.69485,0.15932 -0.20359,0.0885 -0.31424,0.26113 -0.11064,0.16818 -0.11064,0.37619 0,0.31866 0.23899,0.5311 0.24342,0.21244 0.70813,0.21244 0.46029,0 0.81878,-0.19916 0.35849,-0.20359 0.52667,-0.55323 0.12835,-0.26997 0.12835,-0.79665 z" />
      <path
         id="path951"
         style="stroke-width:0.226602"
         d="m 230.06165,157.71074 -1.78803,-4.70022 h 0.84091 l 1.00908,2.81482 q 0.16376,0.45586 0.30096,0.94713 0.10622,-0.37177 0.29653,-0.89402 l 1.04449,-2.86793 h 0.81878 l -1.77918,4.70022 z" />
      <path
         id="path953"
         style="stroke-width:0.226602"
         d="m 236.35516,157.13096 q -0.44258,0.37619 -0.85418,0.5311 -0.40718,0.1549 -0.87631,0.1549 -0.77452,0 -1.19055,-0.3762 -0.41602,-0.38062 -0.41602,-0.96925 0,-0.34521 0.1549,-0.62846 0.15933,-0.28768 0.4116,-0.46029 0.2567,-0.17261 0.57536,-0.26112 0.23456,-0.062 0.70813,-0.1195 0.96482,-0.11507 1.42068,-0.2744 0.004,-0.16376 0.004,-0.20801 0,-0.48684 -0.22572,-0.68601 -0.30538,-0.26997 -0.90729,-0.26997 -0.56208,0 -0.83205,0.19916 -0.26555,0.19474 -0.3939,0.69485 l -0.77894,-0.10621 q 0.10622,-0.50012 0.34964,-0.8055 0.24342,-0.30981 0.7037,-0.47357 0.46029,-0.16818 1.06662,-0.16818 0.60191,0 0.97811,0.14163 0.37619,0.14163 0.55322,0.35849 0.17704,0.21244 0.24785,0.53995 0.0398,0.20359 0.0398,0.73469 v 1.06219 q 0,1.11088 0.0487,1.40741 0.0531,0.2921 0.20358,0.56208 h -0.83205 q -0.12392,-0.24785 -0.15933,-0.57978 z m -0.0664,-1.77918 q -0.43373,0.17703 -1.30119,0.30096 -0.49126,0.0708 -0.69485,0.15932 -0.20359,0.0885 -0.31423,0.26113 -0.11065,0.16818 -0.11065,0.37619 0,0.31866 0.239,0.5311 0.24342,0.21244 0.70813,0.21244 0.46028,0 0.81877,-0.19916 0.35849,-0.20359 0.52668,-0.55323 0.12834,-0.26997 0.12834,-0.79665 z" />
      <path
         id="path955"
         style="stroke-width:0.226602"
         d="m 238.3158,157.71074 v -6.48825 h 0.79664 v 6.48825 z" />
      <path
         id="path957"
         style="stroke-width:0.226602"
         d="m 243.56924,156.19711 0.8232,0.10179 q -0.19473,0.72141 -0.7214,1.11974 -0.52668,0.39832 -1.34545,0.39832 -1.03122,0 -1.63755,-0.63289 -0.60192,-0.63732 -0.60192,-1.78361 0,-1.18611 0.61077,-1.84114 0.61076,-0.65502 1.58444,-0.65502 0.9427,0 1.54018,0.64175 0.59749,0.64174 0.59749,1.80573 0,0.0708 -0.004,0.21244 h -3.50524 q 0.0442,0.77452 0.43815,1.18612 0.3939,0.4116 0.98253,0.4116 0.43816,0 0.74797,-0.23014 0.3098,-0.23015 0.49126,-0.73469 z m -2.61566,-1.28791 h 2.62451 q -0.0531,-0.59306 -0.30095,-0.88959 -0.38062,-0.46029 -0.98696,-0.46029 -0.5488,0 -0.92499,0.36735 -0.37177,0.36734 -0.41161,0.98253 z" />
      <path
         id="path959"
         style="stroke-width:0.226602"
         d="m 245.40152,152.13864 v -0.91615 h 0.79665 v 0.91615 z m 0,5.5721 v -4.70022 h 0.79665 v 4.70022 z" />
      <path
         id="path961"
         style="stroke-width:0.226602"
         d="m 247.64099,157.71074 v -0.90729 h 0.90729 v 0.90729 z" />
      <path
         id="path963"
         style="stroke-width:0.226602"
         d="m 252.99622,155.9891 0.78337,0.10179 q -0.12834,0.80992 -0.65944,1.27021 -0.52667,0.45586 -1.29677,0.45586 -0.96482,0 -1.55346,-0.62847 -0.5842,-0.63289 -0.5842,-1.81016 0,-0.76124 0.25227,-1.33217 0.25227,-0.57093 0.76566,-0.85418 0.51782,-0.28768 1.12416,-0.28768 0.76567,0 1.25251,0.38948 0.48684,0.38504 0.62404,1.0976 l -0.77452,0.11949 q -0.11065,-0.47356 -0.3939,-0.71255 -0.27883,-0.239 -0.67715,-0.239 -0.60191,0 -0.9781,0.43373 -0.3762,0.42931 -0.3762,1.36316 0,0.94712 0.36292,1.37642 0.36291,0.42931 0.94712,0.42931 0.46914,0 0.78337,-0.28768 0.31423,-0.28768 0.39832,-0.88516 z" />
      <path
         id="path965"
         style="stroke-width:0.226602"
         d="m 254.16464,155.36063 q 0,-1.30561 0.72583,-1.93408 0.60634,-0.52225 1.47823,-0.52225 0.96925,0 1.58444,0.63732 0.61519,0.63289 0.61519,1.75262 0,0.9073 -0.2744,1.42954 -0.26998,0.51782 -0.79222,0.8055 -0.51782,0.28768 -1.13301,0.28768 -0.98696,0 -1.59772,-0.63289 -0.60634,-0.63289 -0.60634,-1.82344 z m 0.81878,0 q 0,0.90287 0.39389,1.3543 0.3939,0.44701 0.99139,0.44701 0.59306,0 0.98695,-0.45144 0.3939,-0.45143 0.3939,-1.37642 0,-0.87189 -0.39832,-1.3189 -0.3939,-0.45143 -0.98253,-0.45143 -0.59749,0 -0.99139,0.44701 -0.39389,0.447 -0.39389,1.34987 z" />
      <path
         id="path967"
         style="stroke-width:0.226602"
         d="m 259.5066,157.71074 v -4.70022 h 0.71256 v 0.65945 q 0.22129,-0.34521 0.58863,-0.55323 0.36734,-0.21244 0.83648,-0.21244 0.52224,0 0.85418,0.21687 0.33636,0.21686 0.47356,0.60634 0.55766,-0.82321 1.45167,-0.82321 0.69928,0 1.07547,0.38948 0.3762,0.38504 0.3762,1.19054 v 3.22642 h -0.79222 v -2.96087 q 0,-0.47799 -0.0797,-0.686 -0.0752,-0.21244 -0.27882,-0.34079 -0.20359,-0.12835 -0.47799,-0.12835 -0.49569,0 -0.8232,0.33194 -0.32751,0.32751 -0.32751,1.05334 v 2.73073 h -0.79665 v -3.05381 q 0,-0.5311 -0.19474,-0.79665 -0.19473,-0.26555 -0.63731,-0.26555 -0.33637,0 -0.62404,0.17703 -0.28326,0.17704 -0.4116,0.51782 -0.12835,0.34079 -0.12835,0.98253 v 2.43863 z" />
    </g>
    <g
       transform="translate(-3.1066981)"
       style="font-size:7.06172px;line-height:1.05;font-family:Arial;-inkscape-font-specification:Arial;stroke-width:0.176543"
       id="text853"
       aria-label="DIGITAL E TENNOEOGIA PAR VENETI">
      <path
         id="path970"
         style="stroke-width:0.176543"
         d="m 201.01505,118.11897 v -5.05492 h 1.74129 q 0.58963,0 0.89995,0.0724 0.43447,0.1 0.74135,0.36205 0.39998,0.33792 0.59652,0.86548 0.19999,0.52411 0.19999,1.19994 0,0.57583 -0.13448,1.02064 -0.13447,0.4448 -0.34481,0.73789 -0.21033,0.28964 -0.46204,0.4586 -0.24827,0.16551 -0.60342,0.25171 -0.35171,0.0862 -0.81031,0.0862 z m 0.66893,-0.59652 h 1.07926 q 0.49997,0 0.78272,-0.0931 0.28619,-0.0931 0.45515,-0.26205 0.23791,-0.23792 0.36894,-0.6379 0.13448,-0.40343 0.13448,-0.97582 0,-0.79306 -0.26206,-1.21718 -0.25861,-0.42756 -0.631,-0.57238 -0.26895,-0.10345 -0.86548,-0.10345 h -1.06201 z" />
      <path
         id="path972"
         style="stroke-width:0.176543"
         d="m 206.23203,118.11897 v -5.05492 h 0.66893 v 5.05492 z" />
      <path
         id="path974"
         style="stroke-width:0.176543"
         d="m 210.44217,116.13631 v -0.59307 l 2.14127,-0.003 v 1.87577 q -0.49308,0.39308 -1.01719,0.59307 -0.52411,0.19655 -1.07581,0.19655 -0.74479,0 -1.35511,-0.31723 -0.60686,-0.32067 -0.91719,-0.92409 -0.31033,-0.60342 -0.31033,-1.34821 0,-0.7379 0.30688,-1.3758 0.31033,-0.64134 0.88961,-0.95167 0.57928,-0.31033 1.33442,-0.31033 0.54825,0 0.9896,0.1793 0.44481,0.17585 0.69652,0.49308 0.25171,0.31722 0.38274,0.82754 l -0.60342,0.16551 q -0.11378,-0.38619 -0.28274,-0.60686 -0.16896,-0.22068 -0.48274,-0.35171 -0.31377,-0.13448 -0.69651,-0.13448 -0.4586,0 -0.79307,0.14138 -0.33446,0.13792 -0.54135,0.36549 -0.20344,0.22758 -0.31723,0.49998 -0.19309,0.46894 -0.19309,1.01719 0,0.67583 0.23102,1.13098 0.23447,0.45515 0.67928,0.67583 0.44481,0.22068 0.94478,0.22068 0.43446,0 0.84823,-0.16551 0.41378,-0.16896 0.62756,-0.35861 v -0.94133 z" />
      <path
         id="path976"
         style="stroke-width:0.176543"
         d="m 213.67994,118.11897 v -5.05492 h 0.66893 v 5.05492 z" />
      <path
         id="path978"
         style="stroke-width:0.176543"
         d="m 216.81082,118.11897 v -4.4584 h -1.66544 v -0.59652 h 4.0067 v 0.59652 h -1.67233 v 4.4584 z" />
      <path
         id="path980"
         style="stroke-width:0.176543"
         d="m 218.76244,118.11897 1.94129,-5.05492 h 0.72065 l 2.06887,5.05492 h -0.76204 l -0.58962,-1.53096 h -2.11369 l -0.55515,1.53096 z m 1.45855,-2.07576 h 1.71371 l -0.52756,-1.39993 q -0.24137,-0.6379 -0.3586,-1.04822 -0.0966,0.48618 -0.2724,0.96547 z" />
      <path
         id="path982"
         style="stroke-width:0.176543"
         d="m 224.00701,118.11897 v -5.05492 h 0.66894 v 4.4584 h 2.48953 v 0.59652 z" />
      <path
         id="path984"
         style="stroke-width:0.176543"
         d="m 229.6757,118.11897 v -5.05492 h 3.65499 v 0.59652 h -2.98606 v 1.5482 h 2.79641 v 0.59308 h -2.79641 v 1.7206 h 3.1033 v 0.59652 z" />
      <path
         id="path986"
         style="stroke-width:0.176543"
         d="m 237.49945,118.11897 v -4.4584 h -1.66543 v -0.59652 h 4.00669 v 0.59652 h -1.67233 v 4.4584 z" />
      <path
         id="path988"
         style="stroke-width:0.176543"
         d="m 240.54413,118.11897 v -5.05492 h 3.65499 v 0.59652 h -2.98606 v 1.5482 h 2.79641 v 0.59308 h -2.79641 v 1.7206 h 3.1033 v 0.59652 z" />
      <path
         id="path990"
         style="stroke-width:0.176543"
         d="m 245.24045,118.11897 v -5.05492 h 0.68617 l 2.65504,3.96877 v -3.96877 h 0.64135 v 5.05492 h -0.68618 l -2.65504,-3.97221 v 3.97221 z" />
      <path
         id="path992"
         style="stroke-width:0.176543"
         d="m 250.34364,118.11897 v -5.05492 h 0.68617 l 2.65505,3.96877 v -3.96877 h 0.64134 v 5.05492 h -0.68617 l -2.65504,-3.97221 v 3.97221 z" />
      <path
         id="path994"
         style="stroke-width:0.176543"
         d="m 255.2503,115.65703 q 0,-1.25856 0.67583,-1.96887 0.67583,-0.71376 1.74474,-0.71376 0.69996,0 1.262,0.33447 0.56205,0.33446 0.85513,0.93443 0.29654,0.59652 0.29654,1.35511 0,0.76893 -0.31033,1.37579 -0.31033,0.60687 -0.87926,0.92065 -0.56894,0.31033 -1.22753,0.31033 -0.71376,0 -1.2758,-0.34482 -0.56204,-0.34481 -0.85168,-0.94133 -0.28964,-0.59652 -0.28964,-1.262 z m 0.68962,0.0103 q 0,0.91375 0.48963,1.44131 0.49308,0.52411 1.23442,0.52411 0.75514,0 1.24132,-0.53101 0.48963,-0.53101 0.48963,-1.50682 0,-0.61721 -0.21033,-1.07581 -0.20689,-0.46205 -0.61032,-0.71376 -0.39998,-0.25516 -0.89995,-0.25516 -0.71031,0 -1.22408,0.48963 -0.51032,0.48619 -0.51032,1.62751 z" />
      <path
         id="path996"
         style="stroke-width:0.176543"
         d="m 260.95691,118.11897 v -5.05492 h 3.65499 v 0.59652 h -2.98606 v 1.5482 h 2.79642 v 0.59308 h -2.79642 v 1.7206 h 3.1033 v 0.59652 z" />
      <path
         id="path998"
         style="stroke-width:0.176543"
         d="m 265.45669,115.65703 q 0,-1.25856 0.67583,-1.96887 0.67583,-0.71376 1.74474,-0.71376 0.69996,0 1.262,0.33447 0.56205,0.33446 0.85514,0.93443 0.29653,0.59652 0.29653,1.35511 0,0.76893 -0.31033,1.37579 -0.31033,0.60687 -0.87926,0.92065 -0.56894,0.31033 -1.22753,0.31033 -0.71376,0 -1.2758,-0.34482 -0.56204,-0.34481 -0.85168,-0.94133 -0.28964,-0.59652 -0.28964,-1.262 z m 0.68962,0.0103 q 0,0.91375 0.48963,1.44131 0.49308,0.52411 1.23442,0.52411 0.75514,0 1.24132,-0.53101 0.48963,-0.53101 0.48963,-1.50682 0,-0.61721 -0.21033,-1.07581 -0.20689,-0.46205 -0.61032,-0.71376 -0.39998,-0.25516 -0.89995,-0.25516 -0.71031,0 -1.22408,0.48963 -0.51032,0.48619 -0.51032,1.62751 z" />
      <path
         id="path1000"
         style="stroke-width:0.176543"
         d="m 273.51491,116.13631 v -0.59307 l 2.14127,-0.003 v 1.87577 q -0.49308,0.39308 -1.01719,0.59307 -0.52411,0.19655 -1.07581,0.19655 -0.74479,0 -1.35511,-0.31723 -0.60686,-0.32067 -0.91719,-0.92409 -0.31033,-0.60342 -0.31033,-1.34821 0,-0.7379 0.30688,-1.3758 0.31033,-0.64134 0.88961,-0.95167 0.57928,-0.31033 1.33442,-0.31033 0.54825,0 0.9896,0.1793 0.44481,0.17585 0.69652,0.49308 0.25171,0.31722 0.38274,0.82754 l -0.60342,0.16551 q -0.11378,-0.38619 -0.28274,-0.60686 -0.16896,-0.22068 -0.48274,-0.35171 -0.31377,-0.13448 -0.69651,-0.13448 -0.4586,0 -0.79307,0.14138 -0.33446,0.13792 -0.54135,0.36549 -0.20344,0.22758 -0.31723,0.49998 -0.19309,0.46894 -0.19309,1.01719 0,0.67583 0.23102,1.13098 0.23447,0.45515 0.67928,0.67583 0.44481,0.22068 0.94478,0.22068 0.43446,0 0.84824,-0.16551 0.41377,-0.16896 0.62755,-0.35861 v -0.94133 z" />
      <path
         id="path1002"
         style="stroke-width:0.176543"
         d="m 276.75268,118.11897 v -5.05492 h 0.66893 v 5.05492 z" />
      <path
         id="path1004"
         style="stroke-width:0.176543"
         d="m 278.04228,118.11897 1.94128,-5.05492 h 0.72065 l 2.06887,5.05492 h -0.76204 l -0.58962,-1.53096 h -2.11369 l -0.55514,1.53096 z m 1.45854,-2.07576 h 1.71371 l -0.52756,-1.39993 q -0.24136,-0.6379 -0.3586,-1.04822 -0.0965,0.48618 -0.2724,0.96547 z" />
      <path
         id="path1006"
         style="stroke-width:0.176543"
         d="m 284.88677,118.11897 v -5.05492 h 1.9068 q 0.50342,0 0.76893,0.0483 0.37239,0.0621 0.6241,0.23792 0.25171,0.17241 0.40343,0.48619 0.15517,0.31377 0.15517,0.68962 0,0.64479 -0.41033,1.09305 -0.41032,0.4448 -1.48268,0.4448 h -1.29649 v 2.05507 z m 0.66893,-2.65159 h 1.30683 q 0.64824,0 0.92064,-0.24137 0.2724,-0.24137 0.2724,-0.67927 0,-0.31723 -0.16206,-0.54136 -0.15861,-0.22757 -0.42067,-0.29998 -0.16895,-0.0448 -0.6241,-0.0448 h -1.29304 z" />
      <path
         id="path1008"
         style="stroke-width:0.176543"
         d="m 288.52451,118.11897 1.94129,-5.05492 h 0.72065 l 2.06887,5.05492 h -0.76204 l -0.58962,-1.53096 h -2.11369 l -0.55515,1.53096 z m 1.45855,-2.07576 h 1.71371 l -0.52756,-1.39993 q -0.24137,-0.6379 -0.3586,-1.04822 -0.0965,0.48618 -0.2724,0.96547 z" />
      <path
         id="path1010"
         style="stroke-width:0.176543"
         d="m 293.80701,118.11897 v -5.05492 h 2.24127 q 0.67583,0 1.02754,0.13792 0.3517,0.13448 0.56204,0.47929 0.21033,0.34481 0.21033,0.76203 0,0.53791 -0.34825,0.90685 -0.34826,0.36895 -1.07581,0.46895 0.2655,0.12758 0.40342,0.25171 0.29309,0.26895 0.55515,0.67238 l 0.87927,1.37579 h -0.84134 l -0.66893,-1.05167 q -0.29309,-0.45515 -0.48274,-0.69652 -0.18964,-0.24136 -0.34136,-0.33791 -0.14827,-0.0966 -0.30343,-0.13448 -0.11379,-0.0241 -0.3724,-0.0241 h -0.77582 v 2.24471 z m 0.66894,-2.824 h 1.43786 q 0.45859,0 0.7172,-0.0931 0.25861,-0.0966 0.39309,-0.30344 0.13447,-0.21033 0.13447,-0.45515 0,-0.3586 -0.26205,-0.58962 -0.25861,-0.23103 -0.82065,-0.23103 h -1.59992 z" />
      <path
         id="path1012"
         style="stroke-width:0.176543"
         d="m 302.30314,118.11897 -1.95852,-5.05492 h 0.7241 l 1.31373,3.67223 q 0.15861,0.44136 0.2655,0.82755 0.11724,-0.41377 0.2724,-0.82755 l 1.36545,-3.67223 h 0.68273 l -1.97922,5.05492 z" />
      <path
         id="path1014"
         style="stroke-width:0.176543"
         d="m 305.58919,118.11897 v -5.05492 h 3.65499 v 0.59652 h -2.98606 v 1.5482 h 2.79641 v 0.59308 h -2.79641 v 1.7206 h 3.10329 v 0.59652 z" />
      <path
         id="path1016"
         style="stroke-width:0.176543"
         d="m 310.28551,118.11897 v -5.05492 h 0.68617 l 2.65504,3.96877 v -3.96877 h 0.64135 v 5.05492 h -0.68617 l -2.65504,-3.97221 v 3.97221 z" />
      <path
         id="path1018"
         style="stroke-width:0.176543"
         d="m 315.40939,118.11897 v -5.05492 h 3.65499 v 0.59652 h -2.98605 v 1.5482 h 2.79641 v 0.59308 h -2.79641 v 1.7206 h 3.10329 v 0.59652 z" />
      <path
         id="path1020"
         style="stroke-width:0.176543"
         d="m 321.39875,118.11897 v -4.4584 h -1.66543 v -0.59652 h 4.0067 v 0.59652 h -1.67233 v 4.4584 z" />
      <path
         id="path1022"
         style="stroke-width:0.176543"
         d="m 324.54342,118.11897 v -5.05492 h 0.66893 v 5.05492 z" />
    </g>
  </g>
</svg>
